HIERARCHY
ROOT Hips
{
	OFFSET 0.000000 0.000000 0.000000
	CHANNELS 6 Xposition Yposition Zposition Zrotation Yrotation Xrotation 
	JOINT LowerBack
	{
		OFFSET 0.000000 0.000000 0.000000
		CHANNELS 3 Zrotation Yrotation Xrotation
		JOINT Spine
		{
			OFFSET 0.028270 2.035590 -0.193380
			CHANNELS 3 Zrotation Yrotation Xrotation
			JOINT Spine1
			{
				OFFSET 0.056720 2.048850 -0.042750
				CHANNELS 3 Zrotation Yrotation Xrotation
				JOINT Neck
				{
					OFFSET 0.000000 0.000000 0.000000
					CHANNELS 3 Zrotation Yrotation Xrotation
					JOINT Neck1
					{
						OFFSET -0.054170 1.746240 0.172020
						CHANNELS 3 Zrotation Yrotation Xrotation
						JOINT Head
						{
							OFFSET 0.104070 1.761360 -0.123970
							CHANNELS 3 Zrotation Yrotation Xrotation
							End Site
							{
								OFFSET 0.000000 0.000000 0.000000
							}
						}
					}
				}
				JOINT LeftShoulder
				{
					OFFSET 0.000000 0.000000 0.000000
					CHANNELS 3 Zrotation Yrotation Xrotation
					JOINT LeftArm
					{
						OFFSET 3.362410 1.200890 -0.311210
						CHANNELS 3 Zrotation Yrotation Xrotation
						JOINT LeftForeArm
						{
							OFFSET 4.983000 -0.000000 -0.000000
							CHANNELS 3 Zrotation Yrotation Xrotation
							JOINT LeftHand
							{
								OFFSET 3.483560 -0.000000 -0.000000
								CHANNELS 3 Zrotation Yrotation Xrotation
								JOINT LeftFingerBase
								{
									OFFSET 0.000000 0.000000 0.000000
									CHANNELS 3 Zrotation Yrotation Xrotation
									JOINT LeftHandIndex1
									{
										OFFSET 0.715260 -0.000000 -0.000000
										CHANNELS 3 Zrotation Yrotation Xrotation
										End Site
										{
											OFFSET 0.000000 0.000000 0.000000
										}
									}
								}
								JOINT LThumb
								{
									OFFSET 0.000000 0.000000 0.000000
									CHANNELS 3 Zrotation Yrotation Xrotation
									End Site
									{
										OFFSET 0.000000 0.000000 0.000000
									}
								}
							}
						}
					}
				}
				JOINT RightShoulder
				{
					OFFSET 0.000000 0.000000 0.000000
					CHANNELS 3 Zrotation Yrotation Xrotation
					JOINT RightArm
					{
						OFFSET -3.136600 1.374050 -0.404650
						CHANNELS 3 Zrotation Yrotation Xrotation
						JOINT RightForeArm
						{
							OFFSET -5.241900 -0.000000 -0.000000
							CHANNELS 3 Zrotation Yrotation Xrotation
							JOINT RightHand
							{
								OFFSET -3.444170 -0.000000 -0.000000
								CHANNELS 3 Zrotation Yrotation Xrotation
								JOINT RightFingerBase
								{
									OFFSET 0.000000 0.000000 0.000000
									CHANNELS 3 Zrotation Yrotation Xrotation
									JOINT RightHandIndex1
									{
										OFFSET -0.622530 -0.000000 -0.000000
										CHANNELS 3 Zrotation Yrotation Xrotation
										End Site
										{
											OFFSET 0.000000 0.000000 0.000000
										}
									}
								}
								JOINT RThumb
								{
									OFFSET 0.000000 0.000000 0.000000
									CHANNELS 3 Zrotation Yrotation Xrotation
									End Site
									{
										OFFSET 0.000000 0.000000 0.000000
									}
								}
							}
						}
					}
				}
			}
		}
	}
}
}
MOTION
Frames: 17
Frame Time: 0.008333
4.330121 16.100703 -3.544194 -157.058777 74.157793 -140.525095 4.219340 -0.708578 -0.666036 -0.031700 -1.045598 -3.427380 -7.146475 -0.950974 -2.044138 11.076938 -9.783732 -8.470862 -3.435458 -0.251000 -0.272215 0.000000 0.000000 0.000000 0.435964 11.210492 0.243696 -75.178255 12.076314 26.956616 -179.931402 -79.609840 179.957337 6.350729 -5.571705 -0.339888 -0.086795 0.522033 0.000000 0.000000 0.000000 0.000000 0.000000 0.000000 0.000000 12.084720 -2.578509 -0.399181 72.645787 5.473568 31.869502 179.600668 81.479032 179.971029 -4.925968 8.540415 -0.400654 0.113222 -0.603501 -0.000000 0.000000 0.000000 0.000000 0.000000 0.000000 0.000000 
4.546910 16.183794 -3.633467 -159.044552 73.745022 -142.418195 3.756538 -0.538629 -0.869212 -0.132234 -0.851741 -3.464926 -7.166918 -0.753995 -2.029572 10.996244 -9.794828 -8.459863 -3.368106 -0.246585 -0.264635 0.000000 0.000000 0.000000 0.611447 11.464453 0.205830 -74.587386 12.709991 27.457115 -179.881119 -78.510586 179.964245 5.179538 -5.741588 -0.284172 -0.057504 0.529115 0.000000 0.000000 0.000000 0.000000 0.000000 0.000000 0.000000 11.521962 -2.403133 -0.440990 73.423864 5.975911 32.401241 179.553559 80.521630 179.973548 -4.440505 8.717972 -0.368818 0.103748 -0.623419 -0.000000 0.000000 0.000000 0.000000 0.000000 0.000000 0.000000 
4.766839 16.276098 -3.730087 -160.843462 73.289245 -144.107705 3.339724 -0.370077 -1.107327 -0.225847 -0.663942 -3.506756 -7.195168 -0.562871 -2.001352 10.932640 -9.848088 -8.463754 -3.300079 -0.242035 -0.260304 0.000000 0.000000 0.000000 0.764631 11.737054 0.157620 -73.986170 13.295015 27.924814 -179.836167 -77.537351 179.969975 4.212701 -5.890001 -0.235542 -0.032520 0.534347 0.000000 0.000000 0.000000 0.000000 0.000000 0.000000 0.000000 10.985591 -2.284626 -0.488762 74.145541 6.410871 32.894059 179.505574 79.566823 179.975967 -4.004830 8.875028 -0.338779 0.095191 -0.642357 -0.000000 0.000000 0.000000 0.000000 0.000000 0.000000 0.000000 
4.989311 16.376751 -3.833772 -162.460254 72.792215 -145.618919 2.966991 -0.209192 -1.359872 -0.313337 -0.487444 -3.553297 -7.233120 -0.383426 -1.977879 10.888786 -9.930654 -8.464078 -3.237026 -0.237999 -0.254163 0.000000 0.000000 0.000000 0.887021 11.956042 0.096359 -73.393752 13.920783 28.283645 -179.802060 -76.670479 179.974212 3.482548 -6.011398 -0.197394 -0.012285 0.537257 -0.000000 0.000000 0.000000 0.000000 0.000000 0.000000 0.000000 10.505403 -2.216890 -0.532454 74.791287 6.778312 33.356816 179.457124 78.646825 179.978234 -3.626338 9.014821 -0.311738 0.087948 -0.660078 -0.000000 0.000000 0.000000 0.000000 0.000000 0.000000 0.000000 
5.213783 16.484316 -3.944303 -163.864526 72.253290 -146.934421 2.648134 -0.059888 -1.614107 -0.392107 -0.326397 -3.598221 -7.277229 -0.219250 -1.943627 10.867905 -10.035634 -8.470767 -3.179168 -0.234293 -0.249465 0.000000 0.000000 0.000000 0.996392 12.188761 0.025100 -72.835336 14.517399 28.575741 -179.778947 -75.961303 179.976900 3.014520 -6.096367 -0.172106 0.001349 0.537640 0.000000 0.000000 0.000000 0.000000 0.000000 0.000000 0.000000 10.093961 -2.194671 -0.578445 75.350276 7.095326 33.794697 179.409418 77.777625 179.980332 -3.300268 9.144613 -0.287897 0.081876 -0.676417 -0.000000 0.000000 0.000000 0.000000 0.000000 0.000000 0.000000 
5.439578 16.597211 -4.060423 -165.088689 71.688205 -148.097705 2.365380 0.074008 -1.855712 -0.465747 -0.182818 -3.643049 -7.329091 -0.072954 -1.916691 10.872000 -10.152055 -8.467628 -3.130156 -0.231408 -0.241791 0.000000 0.000000 0.000000 1.099744 12.365943 -0.056931 -72.327473 15.174550 28.740896 -179.769848 -75.366007 179.978131 2.781079 -6.147620 -0.159387 0.009645 0.535463 -0.000000 0.000000 0.000000 0.000000 0.000000 0.000000 0.000000 9.766583 -2.207486 -0.617323 75.827070 7.362096 34.210479 179.361843 76.974314 179.982343 -3.012416 9.267417 -0.266357 0.076785 -0.691458 -0.000000 0.000000 0.000000 0.000000 0.000000 0.000000 0.000000 
5.665419 16.713675 -4.182405 -166.084540 71.085232 -149.082317 2.145518 0.189026 -2.061967 -0.527844 -0.061237 -3.680299 -7.383394 0.051548 -1.885739 10.894225 -10.271136 -8.462686 -3.088725 -0.229056 -0.233954 0.000000 0.000000 0.000000 1.200258 12.542478 -0.142868 -71.891347 15.825918 28.820372 -179.771985 -74.906055 179.978185 2.755403 -6.164156 -0.158030 0.012469 0.531119 0.000000 0.000000 0.000000 0.000000 0.000000 0.000000 0.000000 9.511327 -2.246044 -0.655801 76.221123 7.594660 34.599158 179.314483 76.235106 179.984353 -2.742095 9.385566 -0.245628 0.071968 -0.705058 -0.000000 0.000000 0.000000 0.000000 0.000000 0.000000 0.000000 
5.893017 16.830915 -4.306229 -167.050590 70.496579 -150.045972 1.887835 0.282067 -2.268002 -0.598251 0.041182 -3.719780 -7.446426 0.156126 -1.861842 10.954234 -10.396578 -8.448279 -3.056167 -0.227537 -0.223346 0.000000 0.000000 0.000000 1.362675 12.658021 -0.235897 -71.529967 16.562083 28.781522 -179.785807 -74.522538 179.977385 2.872263 -6.157260 -0.164658 0.012375 0.524713 0.000000 0.000000 0.000000 0.000000 0.000000 0.000000 0.000000 9.351640 -2.309415 -0.685666 76.577285 7.780277 34.965997 179.267025 75.565748 179.986530 -2.466640 9.497101 -0.223604 0.067004 -0.717676 -0.000000 0.000000 0.000000 0.000000 0.000000 0.000000 0.000000 
6.120576 16.947223 -4.432204 -167.968329 69.903611 -151.002790 1.612481 0.347631 -2.435036 -0.671565 0.119204 -3.752243 -7.513703 0.236171 -1.838668 11.041957 -10.519298 -8.429758 -3.031152 -0.226555 -0.212270 0.000000 0.000000 0.000000 1.576647 12.749984 -0.326191 -71.250847 17.316060 28.660109 -179.806658 -74.223678 179.976111 3.080778 -6.132493 -0.176074 0.010159 0.516986 0.000003 0.000000 0.000000 0.000000 0.000000 0.000000 0.000000 9.268566 -2.388622 -0.711906 76.899607 7.935936 35.298188 179.219295 74.958137 179.988960 -2.166253 9.599366 -0.198398 0.061102 -0.729161 -0.000000 0.000000 0.000000 0.000000 0.000000 0.000000 0.000000 
6.347987 17.060398 -4.559253 -168.868847 69.320733 -151.987726 1.305009 0.386449 -2.556324 -0.750192 0.174901 -3.777097 -7.585000 0.293758 -1.819251 11.154850 -10.636602 -8.406513 -3.012456 -0.226010 -0.200719 0.000000 0.000000 0.000000 1.848203 12.812172 -0.410282 -71.050735 18.088966 28.463891 -179.831698 -73.985270 179.974689 3.322700 -6.098133 -0.189092 0.007455 0.508451 0.000000 0.000000 0.000000 0.000000 0.000000 0.000000 0.000000 9.249475 -2.476751 -0.734171 77.209000 8.060059 35.589181 179.171436 74.405695 179.991708 -1.827463 9.687808 -0.168712 0.053738 -0.739563 -0.000000 0.000000 0.000000 0.000000 0.000000 0.000000 0.000000 
6.575218 17.168095 -4.686986 -169.757265 68.762170 -153.008218 0.964661 0.402544 -2.628776 -0.834063 0.212389 -3.795806 -7.659420 0.332809 -1.812518 11.283668 -10.745874 -8.373672 -2.998123 -0.225829 -0.187264 0.000000 0.000000 0.000000 2.167702 12.818857 -0.487028 -70.923120 18.909256 28.187568 -179.859069 -73.769339 179.973392 3.540357 -6.066684 -0.200526 0.006079 0.499704 0.000000 0.000000 0.000000 0.000000 0.000000 0.000000 0.000000 9.269282 -2.566081 -0.750782 77.524669 8.142086 35.833214 179.124110 73.901743 179.994779 -1.445100 9.757451 -0.134048 0.044581 -0.748864 -0.000000 0.000000 0.000000 0.000000 0.000000 0.000000 0.000000 
6.800859 17.268121 -4.815308 -170.565421 68.212934 -153.982616 0.625171 0.399287 -2.660837 -0.915815 0.232067 -3.807115 -7.732051 0.354044 -1.809307 11.416522 -10.845013 -8.339752 -2.984507 -0.225593 -0.174377 0.000000 0.000000 0.000000 2.529355 12.804568 -0.550828 -70.871623 19.706942 27.869109 -179.885464 -73.588276 179.972367 3.708794 -6.036894 -0.208976 0.006169 0.491293 0.000000 0.000000 0.000000 0.000000 0.000000 0.000000 0.000000 9.295477 -2.652349 -0.768070 77.856822 8.193369 36.021438 179.078874 73.439944 179.998073 -1.025830 9.805963 -0.095008 0.033559 -0.756903 -0.000000 0.000000 0.000000 0.000000 0.000000 0.000000 0.000000 
7.024607 17.358729 -4.944179 -171.287108 67.688248 -154.916649 0.292799 0.383123 -2.641325 -0.994395 0.240228 -3.810632 -7.802330 0.363701 -1.817741 11.544391 -10.931928 -8.299912 -2.970285 -0.225260 -0.160724 0.000000 0.000000 0.000000 2.912112 12.749466 -0.601680 -70.882959 20.494185 27.506083 -179.909959 -73.421399 179.971700 3.800852 -6.016714 -0.213248 0.008562 0.483564 0.000000 0.000000 0.000000 0.000000 0.000000 0.000000 0.000000 9.308537 -2.729152 -0.784557 78.212266 8.206769 36.150449 179.037495 73.016854 -179.998558 -0.584849 9.831947 -0.053288 0.020958 -0.763680 -0.000000 0.000000 0.000000 0.000000 0.000000 0.000000 0.000000 
7.245891 17.438401 -5.073962 -171.862671 67.192561 -155.748629 0.002448 0.362631 -2.575440 -1.063091 0.242541 -3.806562 -7.866892 0.367566 -1.836541 11.655260 -11.006281 -8.256311 -2.953307 -0.224653 -0.146740 0.000000 0.000000 0.000000 3.291963 12.664854 -0.639668 -70.948289 21.244302 27.116296 -179.931453 -73.271070 179.971393 3.812873 -6.007682 -0.213239 0.013099 0.476778 0.000000 0.000000 0.000000 0.000000 0.000000 0.000000 0.000000 9.284769 -2.792630 -0.802834 78.587068 8.181930 36.219489 179.002256 72.631012 -179.995324 -0.145569 9.837578 -0.011382 0.007341 -0.769130 -0.000000 0.000000 0.000000 0.000000 0.000000 0.000000 0.000000 
7.464243 17.506048 -5.205566 -172.220857 66.726541 -156.399808 -0.206995 0.346034 -2.476751 -1.114698 0.243826 -3.796558 -7.923464 0.370530 -1.863453 11.739288 -11.067497 -8.211135 -2.932342 -0.223682 -0.132724 0.000000 0.000000 0.000000 3.641808 12.564153 -0.666357 -71.056455 21.931643 26.717795 -179.949325 -73.142205 179.971399 3.755189 -6.007596 -0.209541 0.019218 0.471042 0.000000 0.000000 0.000000 0.000000 0.000000 0.000000 0.000000 9.207405 -2.839590 -0.825549 78.970135 8.117398 36.230624 178.975354 72.279554 -179.992458 0.265076 9.828219 0.027913 -0.006544 -0.773290 -0.000000 0.000000 0.000000 0.000000 0.000000 0.000000 0.000000 
7.679383 17.561193 -5.338978 -172.361874 66.287947 -156.869445 -0.325015 0.335820 -2.347708 -1.147371 0.245835 -3.781056 -7.971829 0.374364 -1.898118 11.794483 -11.115632 -8.164454 -2.908278 -0.222428 -0.118600 0.000000 0.000000 0.000000 3.943347 12.449738 -0.683140 -71.192840 22.538650 26.319355 -179.963439 -73.039962 179.971646 3.643418 -6.016229 -0.203046 0.026337 0.466385 0.000000 0.000000 0.000000 0.000000 0.000000 0.000000 0.000000 9.079432 -2.870056 -0.852663 79.347748 8.015613 36.187016 178.958272 71.962438 -179.990169 0.620300 9.810764 0.061910 -0.019805 -0.776363 -0.000000 0.000000 0.000000 0.000000 0.000000 0.000000 0.000000 
7.891404 17.603763 -5.473779 -172.323138 65.873915 -157.188924 -0.357836 0.331216 -2.192253 -1.162419 0.248267 -3.761139 -8.012685 0.378691 -1.940529 11.823079 -11.151316 -8.115419 -2.883264 -0.221082 -0.104085 0.000000 0.000000 0.000000 4.184442 12.318550 -0.691862 -71.341213 23.056444 25.924514 -179.973963 -72.967973 179.972045 3.496541 -6.035491 -0.194852 0.033846 0.462800 0.000000 0.000000 0.000000 0.000000 0.000000 0.000000 0.000000 8.915882 -2.886288 -0.882556 79.704451 7.880165 36.095113 178.951827 71.684088 -179.988625 0.896443 9.793428 0.088416 -0.031516 -0.778626 -0.000000 0.000000 0.000000 0.000000 0.000000 0.000000 0.000000 
